<?xml version="1.0" encoding="utf-8"?>
<!-- Generator: Adobe Illustrator 25.4.1, SVG Export Plug-In . SVG Version: 6.00 Build 0)  -->
<svg version="1.1" id="Capa_1" xmlns="http://www.w3.org/2000/svg" xmlns:xlink="http://www.w3.org/1999/xlink" x="0px" y="0px"
	 viewBox="0 0 64 64" style="enable-background:new 0 0 64 64;" xml:space="preserve">
<style type="text/css">
	.st0{fill:#FF5500;}
</style>
<g transform="matrix(.205031 0 0 .205031 -6.4757 55.842695)">
	<path class="st0" d="M187.8-195.8c-2.7,0-5.5,0.1-8.1,0.4s-5.3,0.7-7.9,1.2s-5.1,1.2-7.6,2l-7.3,2.7l-7,3.4l-6.6,4l-6.1,4.6
		l-5.7,5.2l-5.2,5.7l-4.6,6.1l-4,6.6l-3.4,7c-1,2.4-1.9,4.8-2.7,7.3s-1.4,5-2,7.6s-0.9,5.2-1.2,7.9s-0.4,5.4-0.4,8.1
		s0.1,5.5,0.4,8.1c0.3,2.7,0.7,5.3,1.2,7.9c0.5,2.6,1.2,5.1,2,7.6s1.7,4.9,2.7,7.3l3.4,7l4,6.6l4.6,6.1l5.2,5.7l5.7,5.2l6.1,4.6
		l6.6,4l7,3.4l7.3,2.7l7.6,2c2.6,0.5,5.3,0.9,7.9,1.2c2.7,0.3,5.4,0.4,8.1,0.4c2.7,0,5.5-0.1,8.1-0.4c2.7-0.3,5.3-0.7,7.9-1.2l7.6-2
		l7.3-2.7l7-3.4l6.6-4l6.1-4.6l5.7-5.2l5.2-5.7l4.6-6.1l4-6.6l3.4-7l2.7-7.3c0.8-2.5,1.4-5,2-7.6l1.2-7.9c0.3-2.7,0.4-5.4,0.4-8.1
		s-0.1-5.5-0.4-8.1c-0.3-2.7-0.7-5.3-1.2-7.9c-0.5-2.6-1.2-5.1-2-7.6l-2.7-7.3l-3.4-7l-4-6.6l-4.6-6.1l-5.2-5.7l-5.7-5.2l-6.1-4.6
		l-6.6-4l-7-3.4l-7.3-2.7l-7.6-2l-7.9-1.2C193.2-195.7,190.5-195.8,187.8-195.8L187.8-195.8z M187.8-168.3c1.8,0,3.6,0.1,5.4,0.3
		l5.2,0.8l5,1.3l4.8,1.7l4.6,2.2l4.3,2.6l4,3l3.7,3.4l3.4,3.7l3,4l2.6,4.3l2.2,4.6c0.7,1.6,1.2,3.2,1.8,4.8s0.9,3.3,1.3,5
		c0.3,1.7,0.6,3.4,0.8,5.2l0.3,5.4c0,1.8-0.1,3.6-0.3,5.4s-0.4,3.5-0.8,5.2s-0.8,3.4-1.3,5l-1.8,4.8l-2.2,4.6l-2.6,4.3l-3,4
		l-3.4,3.7l-3.7,3.4l-4,3l-4.3,2.6l-4.6,2.2l-4.8,1.7l-5,1.3l-5.2,0.8c-1.8,0.2-3.6,0.3-5.4,0.3c-1.8,0-3.6-0.1-5.4-0.3l-5.2-0.8
		c-1.7-0.3-3.4-0.8-5-1.3l-4.8-1.7l-4.6-2.2l-4.3-2.6l-4-3l-3.7-3.4l-3.4-3.7l-3-4l-2.6-4.3l-2.2-4.6l-1.8-4.8l-1.3-5l-0.8-5.2
		c-0.2-1.8-0.3-3.6-0.3-5.4c0-1.8,0.1-3.6,0.3-5.4c0.2-1.8,0.4-3.5,0.8-5.2c0.3-1.7,0.8-3.4,1.3-5l1.8-4.8l2.2-4.6l2.6-4.3l3-4
		l3.4-3.7l3.7-3.4l4-3l4.3-2.6l4.6-2.2c1.6-0.7,3.2-1.2,4.8-1.7l5-1.3c1.7-0.3,3.4-0.6,5.2-0.8C184.2-168.2,186-168.3,187.8-168.3
		L187.8-168.3z"/>
	<path class="st0" d="M270.9-218.5c-0.6,0-1.3,0-1.9,0.1c-0.6,0.1-1.3,0.2-1.9,0.3c-0.6,0.1-1.2,0.3-1.8,0.5
		c-0.6,0.2-1.2,0.4-1.8,0.7c-0.6,0.2-1.2,0.5-1.7,0.8c-0.6,0.3-1.1,0.6-1.6,1c-0.5,0.4-1,0.7-1.5,1.2c-0.5,0.4-0.9,0.8-1.4,1.3
		c-0.4,0.5-0.9,0.9-1.3,1.4c-0.4,0.5-0.8,1-1.1,1.6c-0.3,0.5-0.7,1.1-0.9,1.7c-0.3,0.6-0.5,1.2-0.8,1.7c-0.2,0.6-0.4,1.2-0.6,1.8
		c-0.2,0.6-0.3,1.2-0.4,1.9c-0.1,0.6-0.2,1.3-0.2,1.9c0,0.5,0,0.9,0,1.4c0,0.6,0,1.3,0.1,1.9c0.1,0.6,0.2,1.3,0.3,1.9
		c0.1,0.6,0.3,1.2,0.5,1.9c0.2,0.6,0.4,1.2,0.7,1.8c0.2,0.6,0.5,1.2,0.8,1.7c0.3,0.6,0.6,1.1,1,1.6c0.4,0.5,0.7,1,1.2,1.5
		c0.4,0.5,0.8,1,1.3,1.4c0.5,0.4,0.9,0.9,1.4,1.3c0.5,0.4,1,0.8,1.5,1.1c0.5,0.3,1.1,0.7,1.6,1c0.6,0.3,1.1,0.6,1.7,0.8
		c0.6,0.2,1.2,0.4,1.8,0.6c0.6,0.2,1.2,0.3,1.9,0.4c0.6,0.1,1.3,0.2,1.9,0.2c0.4,0,0.9,0,1.3,0c0.6,0,1.3,0,1.9-0.1
		c0.6-0.1,1.3-0.2,1.9-0.3c0.6-0.1,1.2-0.3,1.8-0.5c0.6-0.2,1.2-0.4,1.8-0.7c0.6-0.2,1.2-0.5,1.7-0.8c0.6-0.3,1.1-0.6,1.6-1
		c0.5-0.4,1-0.7,1.5-1.2c0.5-0.4,0.9-0.8,1.4-1.3c0.4-0.5,0.9-0.9,1.3-1.4c0.4-0.5,0.8-1,1.1-1.6c0.3-0.5,0.7-1.1,0.9-1.7
		c0.3-0.6,0.5-1.2,0.8-1.7c0.2-0.6,0.4-1.2,0.6-1.8c0.2-0.6,0.3-1.2,0.4-1.9c0.1-0.6,0.2-1.3,0.2-1.9c0-0.5,0-0.9,0-1.4
		c0-0.6,0-1.3-0.1-1.9c-0.1-0.6-0.2-1.3-0.3-1.9c-0.1-0.6-0.3-1.2-0.5-1.9c-0.2-0.6-0.4-1.2-0.7-1.8c-0.2-0.6-0.5-1.2-0.8-1.7
		c-0.3-0.6-0.6-1.1-1-1.6c-0.4-0.5-0.7-1-1.2-1.5c-0.4-0.5-0.8-1-1.3-1.4c-0.5-0.4-0.9-0.9-1.4-1.3c-0.5-0.4-1-0.8-1.5-1.1
		c-0.5-0.3-1.1-0.7-1.6-1c-0.6-0.3-1.1-0.6-1.7-0.8c-0.6-0.2-1.2-0.4-1.8-0.6c-0.6-0.2-1.2-0.3-1.9-0.4c-0.6-0.1-1.3-0.2-1.9-0.2
		C271.8-218.5,271.3-218.5,270.9-218.5L270.9-218.5z"/>
	<path class="st0" d="M172.7-272.1c-8.7,0-16.4,0-23.4,0.1l-18.7,0.5c-5.5,0.2-10.4,0.6-14.8,1c-2.2,0.2-4.3,0.4-6.2,0.7
		c-1.9,0.2-3.7,0.5-5.6,0.8c-1.8,0.3-3.4,0.6-5,1s-3.1,0.7-4.6,1.1c-1.4,0.4-2.9,0.8-4.3,1.3c-1.4,0.5-2.8,1-4.1,1.5
		c-2.7,1.1-5.3,2.3-8,3.6c-2.1,1-4,2.1-5.8,3.2s-3.5,2.3-5.2,3.5c-1.7,1.3-3.4,2.7-5,4.2c-1.7,1.5-3.4,3.2-5.2,5.1
		c-2.2,2.4-4.2,4.5-5.9,6.7c-0.9,1.1-1.7,2.1-2.4,3.2c-0.8,1.1-1.5,2.1-2.2,3.2c-0.7,1.1-1.3,2.2-1.9,3.3c-0.6,1.2-1.2,2.3-1.8,3.5
		c-1.1,2.4-2.2,5.1-3.3,8c-0.8,2.2-1.5,4.4-2.1,6.6c-0.6,2.3-1.2,4.7-1.7,7.2s-0.9,5.3-1.3,8.4c-0.4,3.4-0.7,6.7-1,10.1
		c-0.3,3.7-0.5,7.8-0.7,12.3l-0.5,15.1l-0.2,18.4l-0.1,22.2l0.2,32.3l0.6,24.5l0.5,9.6l0.6,7.9c0.2,2.1,0.4,4.3,0.7,6.4
		c0.3,1.9,0.6,3.5,0.9,5c0.6,2.9,1.4,5.8,2.2,8.6c0.8,2.7,1.8,5.4,2.8,8.1c1,2.6,2.2,5.1,3.4,7.5s2.6,4.7,4,6.9s3,4.3,4.6,6.4
		c1.6,2,3.4,4,5.2,5.8c1.8,1.9,3.8,3.6,5.8,5.3c2.1,1.7,4.2,3.3,6.5,4.8c2.1,1.4,4.1,2.7,6.2,3.8s4.2,2.2,6.3,3.2s4.3,1.8,6.6,2.6
		c2.3,0.8,4.7,1.5,7.2,2.1s5.2,1.2,8,1.6s5.9,0.9,9.1,1.2s6.7,0.6,10.4,0.9s7.7,0.4,11.9,0.6c6.6,0.2,16.5,0.4,28,0.4l37.1-0.1
		l35.2-0.5l13.4-0.4l8.7-0.4c1.9-0.2,3.7-0.3,5.5-0.5s3.5-0.5,5.2-0.7s3.4-0.6,5-0.9c1.6-0.3,3.2-0.7,4.8-1.1
		c1.6-0.4,3.1-0.9,4.7-1.3s3.1-1,4.6-1.6c1.5-0.6,3-1.2,4.5-1.8c1.5-0.6,3-1.3,4.5-2c2.3-1.1,4.2-2,5.8-3c1.5-0.8,3-1.8,4.4-2.8
		c1.4-1,2.8-2.2,4.4-3.7c1.6-1.5,3.4-3.2,5.7-5.5c2-2,3.6-3.7,5.1-5.2s2.6-3,3.7-4.3c1-1.3,2-2.6,2.8-4c0.8-1.3,1.6-2.8,2.4-4.3
		c1.2-2.3,2.3-4.5,3.2-6.6c0.9-2,1.8-4.1,2.5-6.1c0.8-2.1,1.4-4.2,2-6.3c0.6-2.2,1-4.5,1.5-7s0.8-5.3,1.1-8.4s0.6-6.5,0.8-10.3
		l0.6-12.8l0.5-16l0.4-17.8l0.1-18.6l-0.3-36.6l-0.4-16.4l-0.6-14.1l-0.8-11c-0.3-3.1-0.6-5.5-0.9-7.1c-0.3-1.8-0.7-3.6-1.2-5.4
		c-0.4-1.7-0.9-3.4-1.4-5.2c-0.5-1.7-1-3.3-1.6-4.9c-0.6-1.6-1.2-3.2-1.8-4.7s-1.3-3.1-2-4.5s-1.5-2.9-2.2-4.3s-1.6-2.8-2.4-4.1
		s-1.7-2.6-2.7-3.9c-0.9-1.3-1.9-2.5-2.9-3.7c-1-1.2-2-2.4-3.1-3.5c-1.1-1.1-2.2-2.2-3.3-3.3c-1.1-1.1-2.3-2.1-3.5-3.1
		c-1.2-1-2.4-2-3.7-2.9c-1.3-0.9-2.6-1.8-3.9-2.7c-1.4-0.9-2.7-1.7-4.1-2.5c-1.4-0.8-2.9-1.6-4.4-2.3c-2.4-1.2-4.7-2.2-6.9-3.2
		c-2.2-0.9-4.4-1.8-6.7-2.5c-2.3-0.7-4.6-1.3-7.2-1.9s-5.4-1-8.6-1.3s-6.8-0.7-10.9-0.9c-4.1-0.3-8.7-0.5-14-0.6l-17.9-0.4
		l-22.6-0.3L172.7-272.1L172.7-272.1z M187.7-244.6l41.8,0.2l15.8,0.3c4.3,0.1,7.7,0.3,9.6,0.4c2.5,0.2,4.9,0.5,7.2,0.8
		c2.2,0.3,4.4,0.7,6.6,1.1c2.1,0.4,4.1,0.9,6,1.5s3.7,1.2,5.5,1.9s3.4,1.5,5.1,2.3c1.6,0.8,3.2,1.8,4.7,2.8c1.5,1,2.9,2.1,4.4,3.2
		s2.8,2.4,4.1,3.7c1.4,1.4,2.7,2.8,3.9,4.3c1.2,1.5,2.3,3,3.3,4.6c1,1.6,1.9,3.3,2.7,5c0.8,1.8,1.6,3.6,2.2,5.6s1.3,4.1,1.8,6.3
		c0.6,2.4,1,4.8,1.4,7.2c0.4,2.6,0.7,5.3,1,8.2s0.5,6,0.7,9.4c0.2,2.7,0.3,6.2,0.4,10.4l0.3,14.2l0.2,34.8l-0.3,34.8l-0.3,14.2
		L315.5-57c-0.3,4.8-0.6,8.9-1,12.4c-0.2,1.8-0.4,3.4-0.6,4.9c-0.2,1.4-0.5,2.9-0.7,4.3c-0.3,1.3-0.6,2.6-0.9,3.9
		c-0.3,1.2-0.7,2.5-1.1,3.7c-0.4,1.2-0.9,2.4-1.3,3.6c-0.5,1.3-1.1,2.5-1.6,3.7c-0.5,1.1-1,2.2-1.6,3.2c-0.6,1-1.1,2-1.8,3
		c-0.6,1-1.3,1.9-2,2.8c-0.7,0.9-1.4,1.8-2.1,2.7c-0.7,0.9-1.5,1.7-2.3,2.5c-0.8,0.8-1.6,1.6-2.5,2.3s-1.8,1.5-2.7,2.2
		s-1.9,1.4-2.9,2s-2,1.2-3.1,1.8s-2.1,1.1-3.2,1.7c-1.1,0.5-2.3,1-3.4,1.5c-1.2,0.5-2.4,0.9-3.6,1.4c-2.5,0.9-5.1,1.6-7.9,2.2
		c-2.9,0.7-5.8,1.2-8.8,1.6c-1.1,0.2-3.7,0.3-7.4,0.5l-14.2,0.4l-40.2,0.5L156.4,12l-16.5-0.2l-10.7-0.3l-7.9-0.6
		c-2.5-0.2-4.7-0.4-6.9-0.7s-4.1-0.6-6-0.9c-1.8-0.3-3.5-0.7-5.3-1.1c-1.6-0.4-3.2-0.8-4.7-1.4c-1.5-0.5-2.9-1.1-4.3-1.7
		s-2.8-1.3-4.1-2s-2.7-1.5-4-2.4c-1-0.6-2-1.3-2.9-2s-1.9-1.4-2.7-2.1s-1.7-1.5-2.5-2.2c-0.8-0.8-1.6-1.6-2.3-2.4
		c-0.8-0.8-1.5-1.7-2.2-2.5c-0.7-0.9-1.3-1.8-2-2.7C70.5-14,69.9-15,69.4-16c-0.6-1-1.1-2-1.6-3.1c-0.5-1.1-1-2.2-1.5-3.3
		c-0.5-1.1-0.9-2.3-1.3-3.5c-0.8-2.4-1.5-5-2.2-7.7s-1.2-5.6-1.6-8.7s-0.8-6.4-1.1-9.8c-0.2-2.6-0.4-6.6-0.5-11.6l-0.3-17.9
		l0.1-45.7l0.8-43.7l0.6-15.4l0.3-5.1c0.1-1.4,0.2-2.4,0.4-3c0.4-2,0.8-3.8,1.3-5.6c0.4-1.6,0.8-3.3,1.3-4.9c0.5-1.5,1-2.9,1.5-4.3
		c0.5-1.3,1.1-2.6,1.7-3.8c0.6-1.2,1.3-2.4,2-3.5s1.5-2.2,2.3-3.3s1.7-2.2,2.7-3.3s2-2.2,3.2-3.4c1.3-1.3,2.7-2.6,4.2-3.8
		c1.4-1.2,2.8-2.2,4.2-3.2c1.4-1,2.9-1.9,4.5-2.7s3.1-1.6,4.8-2.2s3.5-1.3,5.3-1.8c2-0.6,4-1,6-1.4c2.1-0.4,4.4-0.8,6.8-1.1
		s4.9-0.6,7.7-0.8c1.9-0.2,5.2-0.3,9.5-0.4l15.7-0.3L187.7-244.6L187.7-244.6z"/>
</g>
</svg>
