<?xml version="1.0" encoding="utf-8"?>
<!-- Generator: Adobe Illustrator 25.4.1, SVG Export Plug-In . SVG Version: 6.00 Build 0)  -->
<svg version="1.1" id="Capa_1" xmlns="http://www.w3.org/2000/svg" xmlns:xlink="http://www.w3.org/1999/xlink" x="0px" y="0px"
	 viewBox="0 0 256 209" style="enable-background:new 0 0 256 209;" xml:space="preserve">
<style type="text/css">
	.st0{fill:#FF5500;}
</style>
<path class="st0" d="M80.5,208c96.6,0,149.4-80,149.4-149.4c0-2.3,0-4.5-0.2-6.8c10.3-7.4,19.2-16.6,26.2-27.2
	c-9.6,4.2-19.8,7-30.2,8.3c11-6.6,19.2-16.9,23.1-29c-10.3,6.1-21.6,10.4-33.4,12.7c-19.9-21.2-53.2-22.2-74.3-2.3
	c-13.6,12.8-19.4,31.9-15.2,50.2C83.8,62.3,44.5,42.4,17.8,9.6C3.9,33.6,11,64.3,34.1,79.7c-8.4-0.2-16.5-2.5-23.8-6.6v0.7
	c0,25,17.6,46.5,42.1,51.5c-7.7,2.1-15.8,2.4-23.7,0.9c6.9,21.4,26.6,36.1,49.1,36.5c-18.6,14.6-41.6,22.6-65.2,22.5
	c-4.2,0-8.4-0.3-12.5-0.8C24,199.8,52,208,80.5,208"/>
</svg>
