<?xml version="1.0" encoding="utf-8"?>
<!-- Generator: Adobe Illustrator 25.4.1, SVG Export Plug-In . SVG Version: 6.00 Build 0)  -->
<svg version="1.1" id="Capa_1" xmlns="http://www.w3.org/2000/svg" xmlns:xlink="http://www.w3.org/1999/xlink" x="0px" y="0px"
	 viewBox="0 0 64 64" style="enable-background:new 0 0 64 64;" xml:space="preserve">
<style type="text/css">
	.st0{fill:#FF5500;}
	.st1{fill:#FFFFFF;}
</style>
<path class="st0" d="M62.6,16.6c-0.7-2.8-2.9-4.9-5.7-5.7c-5-1.4-25-1.4-25-1.4S12,9.6,7,11c-2.8,0.7-4.9,2.9-5.7,5.7
	C0,21.6,0,32,0,32s0,10.4,1.4,15.4c0.7,2.8,2.9,4.9,5.7,5.7c5,1.4,25,1.4,25,1.4s20,0,25-1.4c2.8-0.7,4.9-2.9,5.7-5.7
	C64,42.4,64,32,64,32S64,21.6,62.6,16.6z"/>
<path class="st1" d="M25.6,41.6L42.2,32l-16.6-9.6L25.6,41.6z"/>
</svg>
